# 3ds Max Wavefront OBJ Exporter v0.97b - (c)2007 guruware
# File Created: 08.11.2014 19:02:10

mtllib gaviota.mtl

#
# object Object04
#

v  2.4776 9.5796 2.3365
v  2.3781 9.7004 0.4642
v  6.4604 12.3078 3.0038
v  3.6030 10.9119 -2.4835
v  6.7491 12.4379 -2.8520
v  9.4533 13.4920 2.6161
v  9.1955 13.0878 -2.5706
v  11.4184 14.3322 2.5786
v  10.0394 13.6332 -2.5498
v  13.1492 14.9263 1.5865
v  14.3756 14.4832 -3.9994
v  16.6394 15.0773 -0.8730
v  17.9672 15.2628 -1.5991
v  2.0438 9.6522 3.8332
v  1.6992 10.2150 2.2483
v  6.3263 12.6103 2.8956
v  9.3933 13.7164 2.6021
v  13.0943 15.1196 1.5678
v  11.3151 14.5424 2.5728
v  17.9435 15.3613 -1.6064
v  16.5920 15.2090 -0.8860
v  1.7967 10.0388 3.8311
v  11.0138 14.3378 -2.6968
v  1.9071 9.7443 -2.5631
v  16.1468 14.6684 -4.2795
v  17.8791 14.9780 -3.9398
v  19.0769 15.4697 -2.2013
v  19.1539 15.4218 -2.7396
v  1.6678 8.7173 5.4776
v  0.9042 8.4384 6.8113
v  1.5225 8.0593 5.2263
v  2.0849 7.6359 1.9271
v  1.4497 7.0782 1.7116
v  1.7791 7.9463 -1.8939
v  1.3183 7.4428 -1.8235
v  1.7013 9.1289 -4.0553
v  1.3709 8.5835 -4.0352
v  1.6080 8.6317 -5.8436
v  3.2829 9.3556 -9.5347
v  0.4970 8.6539 -6.5289
v  0.4970 9.7465 -9.5211
v  1.2109 9.3529 -5.4268
v  1.6010 9.2218 5.6847
v  0.4970 10.1554 2.1550
v  1.3486 9.7707 5.9567
v  0.8354 8.9844 6.9975
v  0.4970 10.1459 3.8619
v  0.4970 8.1709 6.8011
v  0.4970 7.7440 5.2477
v  0.4970 6.8975 1.6126
v  0.4970 7.2783 -1.7302
v  0.4970 8.1026 -4.0396
v  0.4970 9.8144 5.9116
v  0.4970 9.0116 6.9964
v  0.4970 9.4125 -5.3715
v  0.4970 8.0473 8.1088
v  0.8176 8.1152 8.0215
v  0.4970 7.9459 8.7051
v  0.4970 8.7452 8.1448
v  0.7481 8.7289 8.1402
v  -1.4835 9.5796 2.3365
v  -5.4663 12.3078 3.0038
v  -1.3841 9.7004 0.4642
v  -2.6089 10.9119 -2.4835
v  -8.4593 13.4920 2.6161
v  -5.7550 12.4379 -2.8520
v  -10.4243 14.3322 2.5786
v  -8.2014 13.0878 -2.5706
v  -12.1551 14.9263 1.5865
v  -9.0453 13.6331 -2.5498
v  -15.6453 15.0773 -0.8730
v  -13.3816 14.4832 -3.9994
v  -16.9732 15.2628 -1.5991
v  -1.0497 9.6522 3.8332
v  -5.3322 12.6103 2.8956
v  -0.7052 10.2150 2.2483
v  -8.3993 13.7164 2.6021
v  -12.1002 15.1196 1.5678
v  -10.3210 14.5424 2.5728
v  -16.9495 15.3613 -1.6064
v  -15.5980 15.2090 -0.8860
v  -0.8027 10.0388 3.8311
v  -10.0198 14.3378 -2.6968
v  -0.9131 9.7443 -2.5631
v  -15.1527 14.6684 -4.2795
v  -15.1527 14.6683 -4.2795
v  -16.8851 14.9780 -3.9398
v  -18.0829 15.4697 -2.2013
v  -18.1598 15.4218 -2.7396
v  -0.6737 8.7173 5.4776
v  -0.5284 8.0593 5.2263
v  0.0899 8.4384 6.8113
v  -1.0908 7.6359 1.9271
v  -0.4556 7.0782 1.7116
v  -0.7850 7.9463 -1.8939
v  -0.3242 7.4428 -1.8235
v  -0.7072 9.1289 -4.0553
v  -0.3768 8.5835 -4.0352
v  -0.6139 8.6317 -5.8436
v  -2.2889 9.3556 -9.5347
v  -0.2168 9.3529 -5.4268
v  -0.6070 9.2218 5.6847
v  0.1587 8.9844 6.9975
v  -0.3545 9.7707 5.9567
v  0.1765 8.1152 8.0215
v  0.2460 8.7289 8.1402
# 106 vertices

vn 0.8277 -0.5564 0.0732
vn 0.8305 -0.5475 -0.1022
vn 0.3795 -0.4499 0.8084
vn 0.2306 0.1869 -0.9549
vn 0.0558 0.0329 -0.9979
vn 0.2893 -0.6246 0.7254
vn 0.1154 -0.1222 -0.9858
vn 0.4211 -0.4980 0.7581
vn -0.0388 0.0103 -0.9992
vn 0.5464 -0.4885 0.6803
vn -0.2084 -0.1533 -0.9660
vn 0.4685 -0.5742 0.6714
vn 0.4463 -0.5743 0.6863
vn 0.8454 0.0431 0.5323
vn -0.2679 0.9633 0.0186
vn -0.2665 0.7959 0.5436
vn -0.2374 0.7190 0.6532
vn 0.1602 0.8389 0.5201
vn -0.0994 0.7225 0.6842
vn 0.2006 0.8249 0.5285
vn 0.2341 0.8522 0.4679
vn 0.1750 0.8851 0.4313
vn -0.3277 0.1151 -0.9377
vn 0.6986 0.6716 -0.2468
vn -0.1291 -0.2256 -0.9656
vn 0.1938 -0.0083 -0.9810
vn 0.3999 -0.0703 -0.9139
vn 0.9056 0.2268 0.3583
vn 0.8942 0.1411 -0.4248
vn 0.9302 -0.1695 0.3256
vn 0.8423 -0.4560 0.2876
vn 0.6876 -0.6662 0.2888
vn 0.8527 -0.5195 0.0542
vn 0.4236 -0.9041 0.0565
vn 0.8691 -0.4559 -0.1917
vn 0.4595 -0.8587 -0.2271
vn 0.9886 -0.0315 -0.1469
vn 0.6577 -0.7242 -0.2074
vn 0.3604 -0.9324 0.0282
vn 0.7287 0.0313 -0.6841
vn 0.0000 -0.9836 -0.1805
vn -0.0000 0.2915 -0.9566
vn 0.1669 0.9860 0.0062
vn 0.9211 0.1091 0.3738
vn -0.0000 0.9998 -0.0204
vn 0.5416 0.7115 0.4478
vn 0.6549 0.5795 0.4850
vn 0.0000 0.9965 0.0837
vn -0.0000 -0.9862 0.1653
vn 0.0000 -0.9695 0.2453
vn -0.0000 -0.9982 0.0607
vn -0.0000 -0.9769 -0.2139
vn -0.0000 -0.9426 -0.3338
vn -0.0000 0.9288 0.3706
vn -0.0000 0.9015 0.4328
vn 0.0000 0.9994 -0.0342
vn -0.0000 -0.9825 -0.1861
vn 0.7955 -0.6041 0.0478
vn -0.0000 -0.5216 0.8532
vn -0.0000 0.8316 0.5554
vn 0.6194 0.6156 0.4872
vn 0.8715 -0.0562 0.4872
vn -0.8277 -0.5564 0.0732
vn -0.3795 -0.4499 0.8084
vn -0.8305 -0.5475 -0.1022
vn -0.2306 0.1869 -0.9549
vn -0.2893 -0.6246 0.7254
vn -0.0558 0.0329 -0.9979
vn -0.4211 -0.4980 0.7581
vn -0.1154 -0.1222 -0.9858
vn -0.5464 -0.4885 0.6803
vn 0.0388 0.0103 -0.9992
vn -0.4685 -0.5742 0.6714
vn 0.2084 -0.1533 -0.9660
vn -0.4462 -0.5743 0.6863
vn -0.8454 0.0431 0.5323
vn 0.2665 0.7959 0.5436
vn 0.2679 0.9633 0.0186
vn 0.2374 0.7190 0.6532
vn -0.1602 0.8389 0.5201
vn 0.0994 0.7225 0.6842
vn -0.2006 0.8249 0.5285
vn -0.2341 0.8522 0.4679
vn -0.1750 0.8851 0.4313
vn 0.3277 0.1151 -0.9377
vn -0.6986 0.6716 -0.2468
vn 0.1291 -0.2256 -0.9656
vn -0.1938 -0.0083 -0.9810
vn -0.3999 -0.0703 -0.9139
vn -0.9056 0.2268 0.3583
vn -0.8942 0.1411 -0.4248
vn -0.9302 -0.1695 0.3256
vn -0.6876 -0.6662 0.2888
vn -0.8423 -0.4560 0.2876
vn -0.8527 -0.5195 0.0542
vn -0.4236 -0.9041 0.0565
vn -0.8691 -0.4559 -0.1917
vn -0.4595 -0.8587 -0.2271
vn -0.9886 -0.0315 -0.1469
vn -0.6577 -0.7242 -0.2074
vn -0.3604 -0.9324 0.0282
vn -0.7287 0.0313 -0.6841
vn -0.1669 0.9860 0.0062
vn -0.9211 0.1091 0.3738
vn -0.6549 0.5795 0.4850
vn -0.5416 0.7115 0.4478
vn -0.7955 -0.6041 0.0478
vn -0.6194 0.6156 0.4872
vn -0.8715 -0.0562 0.4872
# 109 vertex normals

vt 0.9434 0.2762 0.3259
vt 0.9378 0.1777 0.3328
vt 0.7412 0.3401 0.4854
vt 0.8574 0.0311 0.4034
vt 0.6898 0.0301 0.4930
vt 0.5789 0.3303 0.5552
vt 0.5610 0.0587 0.5318
vt 0.4703 0.3388 0.6047
vt 0.5165 0.0645 0.5637
vt 0.3784 0.2965 0.6399
vt 0.2777 0.0129 0.6149
vt 0.1810 0.1898 0.6503
vt 0.1162 0.1534 0.6616
vt 0.9736 0.3555 0.3299
vt 0.8513 0.4173 0.5420
vt 0.9383 0.6595 0.5197
vt 0.6811 0.6762 0.5590
vt 0.5807 0.3679 0.5682
vt 0.7348 0.3740 0.5028
vt 0.3639 0.3197 0.6510
vt 0.4660 0.3699 0.6168
vt 0.1038 0.1789 0.6673
vt 0.1672 0.2184 0.6579
vt 0.9682 0.3923 0.3521
vt 0.1596 0.4527 0.5284
vt 0.0949 0.4101 0.5155
vt 0.2855 0.3042 0.5430
vt 0.3206 0.5890 0.5749
vt 0.4440 0.3832 0.5891
vt 0.4119 0.6454 0.5722
vt 0.5016 0.3927 0.5693
vt 0.5161 0.6518 0.5633
vt 0.5509 0.3937 0.5561
vt 0.6786 0.3898 0.5668
vt 0.9291 0.7343 0.5023
vt 0.9445 0.0167 0.3351
vt 0.4642 0.0618 0.6048
vt 0.1820 0.0087 0.6264
vt 0.1989 0.2833 0.5226
vt 0.9489 0.4171 0.5120
vt 0.0921 0.0372 0.6451
vt 0.0392 0.1369 0.6741
vt 0.0318 0.1087 0.6714
vt 0.1102 0.2940 0.5067
vt 0.0398 0.3778 0.5037
vt 0.0386 0.3503 0.5021
vt 0.8203 0.8527 0.5152
vt 0.8939 0.8436 0.4556
vt 0.8105 0.8091 0.5043
vt 0.6329 0.7775 0.5486
vt 0.6256 0.7403 0.4323
vt 0.4244 0.7761 0.5245
vt 0.4345 0.7330 0.4522
vt 0.6456 0.8837 0.5781
vt 0.5423 0.8787 0.5703
vt 0.3016 0.8299 0.5176
vt 0.3149 0.7354 0.5147
vt 0.2172 0.7482 0.5175
vt 0.0190 0.8384 0.5580
vt 0.1801 0.6920 0.5182
vt 0.0198 0.6919 0.5781
vt 0.2313 0.9525 0.4850
vt 0.8291 0.8810 0.5097
vt 0.7290 0.8935 0.5441
vt 0.7250 0.9241 0.5268
vt 0.6387 0.9305 0.5374
vt 0.3741 0.8970 0.5333
vt 0.6337 0.9905 0.5332
vt 0.8427 0.9165 0.4895
vt 0.9014 0.8741 0.4498
vt 0.7229 0.9898 0.5326
vt 0.8952 0.8178 0.4917
vt 0.8190 0.7394 0.4683
vt 0.6207 0.6930 0.4219
vt 0.4396 0.6919 0.4428
vt 0.3147 0.6938 0.4880
vt 0.8534 0.9532 0.5126
vt 0.9059 0.8934 0.4219
vt 0.0154 0.9905 0.5085
vt 0.2342 0.9886 0.4883
vt 0.9600 0.8112 0.4849
vt 0.9610 0.8318 0.4490
vt 0.9974 0.8262 0.4219
vt 0.9737 0.8766 0.4219
vt 0.9646 0.8656 0.4432
# 85 texture coords

g Object04
usemtl 03___Default
s 1
f 1/1/1 2/2/2 3/3/3 
f 2/2/2 4/4/4 3/3/3 
f 3/3/3 5/5/5 6/6/6 
f 6/6/6 7/7/7 8/8/8 
f 8/8/8 9/9/9 10/10/10 
f 10/10/10 11/11/11 12/12/12 
f 12/12/12 11/11/11 13/13/13 
f 1/1/1 3/3/3 14/14/14 
f 4/15/4 15/16/15 16/17/16 
f 17/18/17 16/19/16 6/6/6 
f 18/20/18 19/21/19 10/10/10 
f 20/22/20 21/23/21 13/13/13 
f 16/19/16 22/24/22 3/3/3 
f 21/23/21 18/20/18 12/12/12 
f 21/25/21 20/26/20 11/27/11 
f 18/28/18 11/27/11 23/29/23 
f 19/30/19 18/28/18 9/31/9 
f 17/32/17 19/30/19 7/33/7 
f 16/17/16 17/32/17 5/34/5 
f 19/21/19 17/18/17 8/8/8 
f 15/16/15 22/35/22 16/17/16 
f 4/4/4 2/2/2 24/36/24 
f 5/5/5 3/3/3 4/4/4 
f 7/7/7 6/6/6 5/5/5 
f 9/9/9 8/8/8 7/7/7 
f 23/37/23 10/10/10 9/9/9 
f 11/11/11 10/10/10 23/37/23 
f 25/38/25 13/13/13 11/11/11 
f 3/3/3 6/6/6 16/19/16 
f 8/8/8 10/10/10 19/21/19 
f 12/12/12 13/13/13 21/23/21 
f 14/14/14 3/3/3 22/24/22 
f 10/10/10 12/12/12 18/20/18 
f 25/39/25 11/27/11 20/26/20 
f 11/27/11 18/28/18 21/25/21 
f 23/29/23 9/31/9 18/28/18 
f 9/31/9 7/33/7 19/30/19 
f 7/33/7 5/34/5 17/32/17 
f 24/40/24 15/16/15 4/15/4 
f 6/6/6 8/8/8 17/18/17 
f 5/34/5 4/15/4 16/17/16 
f 25/38/26 26/41/27 13/13/13 
f 27/42/28 13/13/13 28/43/29 
f 13/13/13 27/42/28 20/22/20 
f 25/39/26 20/26/20 26/44/27 
f 28/43/29 13/13/13 26/41/27 
f 27/45/28 28/46/29 20/26/20 
f 28/46/29 26/44/27 20/26/20 
f 29/47/30 30/48/31 31/49/32 
f 32/50/33 31/49/32 33/51/34 
f 34/52/35 33/51/34 35/53/36 
f 1/54/1 29/47/30 32/50/33 
f 2/55/2 32/50/33 34/52/35 
f 36/56/37 34/52/35 37/57/38 
f 36/56/37 37/57/38 38/58/39 
f 39/59/40 36/56/37 38/58/39 
f 40/60/41 41/61/42 39/59/40 
f 36/56/37 39/59/40 42/62/43 
f 43/63/44 14/64/14 22/65/22 
f 15/66/15 24/67/24 44/68/45 
f 31/49/32 32/50/33 29/47/30 
f 33/51/34 34/52/35 32/50/33 
f 35/53/36 37/57/38 34/52/35 
f 29/47/30 14/64/14 43/63/44 
f 29/47/30 1/54/1 14/64/14 
f 32/50/33 2/55/2 1/54/1 
f 34/52/35 24/67/24 2/55/2 
f 34/52/35 36/56/37 24/67/24 
f 43/63/44 45/69/46 46/70/47 
f 24/67/24 36/56/37 42/62/43 
f 29/47/30 43/63/44 46/70/47 
f 43/63/44 22/65/22 45/69/46 
f 47/71/48 22/65/22 44/68/45 
f 31/49/32 48/72/49 49/73/50 
f 50/74/51 51/75/52 33/51/34 
f 51/75/52 52/76/53 35/53/36 
f 53/77/54 54/78/55 45/69/46 
f 49/73/50 50/74/51 31/49/32 
f 52/76/53 40/60/41 37/57/38 
f 22/65/22 47/71/48 53/77/54 
f 42/62/43 41/79/42 55/80/56 
f 30/48/31 56/81/57 48/72/49 
f 46/70/47 57/82/58 30/48/31 
f 57/82/58 58/83/59 56/81/57 
f 59/84/60 58/83/59 60/85/61 
f 60/85/61 54/78/55 59/84/60 
f 29/47/62 46/70/47 30/48/31 
f 57/82/58 46/70/47 60/85/61 
f 38/58/39 37/57/38 40/60/41 
f 48/72/49 31/49/32 30/48/31 
f 39/59/40 38/58/39 40/60/41 
f 39/59/40 41/79/42 42/62/43 
f 44/68/45 22/65/22 15/66/15 
f 55/80/56 44/68/45 24/67/24 
f 51/75/52 35/53/36 33/51/34 
f 54/78/55 46/70/47 45/69/46 
f 50/74/51 33/51/34 31/49/32 
f 52/76/53 37/57/38 35/53/36 
f 24/67/24 42/62/43 55/80/56 
f 22/65/22 53/77/54 45/69/46 
f 57/82/58 60/85/61 58/83/59 
f 56/81/57 30/48/31 57/82/58 
f 54/78/55 60/85/61 46/70/47 
f 61/1/63 62/3/64 63/2/65 
f 63/2/65 62/3/64 64/4/66 
f 62/3/64 65/6/67 66/5/68 
f 65/6/67 67/8/69 68/7/70 
f 67/8/69 69/10/71 70/9/72 
f 69/10/71 71/12/73 72/11/74 
f 71/12/73 73/13/75 72/11/74 
f 61/1/63 74/14/76 62/3/64 
f 64/15/66 75/17/77 76/16/78 
f 77/18/79 65/6/67 75/19/77 
f 78/20/80 69/10/71 79/21/81 
f 80/22/82 73/13/75 81/23/83 
f 75/19/77 62/3/64 82/24/84 
f 81/23/83 71/12/73 78/20/80 
f 81/25/83 72/27/74 80/26/82 
f 78/28/80 83/29/85 72/27/74 
f 79/30/81 70/31/72 78/28/80 
f 77/32/79 68/33/70 79/30/81 
f 75/17/77 66/34/68 77/32/79 
f 79/21/81 67/8/69 77/18/79 
f 76/16/78 75/17/77 82/35/84 
f 64/4/66 84/36/86 63/2/65 
f 66/5/68 64/4/66 62/3/64 
f 68/7/70 66/5/68 65/6/67 
f 70/9/72 68/7/70 67/8/69 
f 83/37/85 70/9/72 69/10/71 
f 72/11/74 83/37/85 69/10/71 
f 85/38/87 72/11/74 73/13/75 
f 62/3/64 75/19/77 65/6/67 
f 67/8/69 79/21/81 69/10/71 
f 71/12/73 81/23/83 73/13/75 
f 74/14/76 82/24/84 62/3/64 
f 69/10/71 78/20/80 71/12/73 
f 85/39/87 80/26/82 72/27/74 
f 72/27/74 81/25/83 78/28/80 
f 83/29/85 78/28/80 70/31/72 
f 70/31/72 79/30/81 68/33/70 
f 68/33/70 77/32/79 66/34/68 
f 84/40/86 64/15/66 76/16/78 
f 65/6/67 77/18/79 67/8/69 
f 66/34/68 75/17/77 64/15/66 
f 86/38/88 73/13/75 87/41/89 
f 88/42/90 89/43/91 73/13/75 
f 73/13/75 80/22/82 88/42/90 
f 86/39/88 87/44/89 80/26/82 
f 89/43/91 87/41/89 73/13/75 
f 88/45/90 80/26/82 89/46/91 
f 89/46/91 80/26/82 87/44/89 
f 90/47/92 91/49/93 92/48/94 
f 93/50/95 94/51/96 91/49/93 
f 95/52/97 96/53/98 94/51/96 
f 61/54/63 93/50/95 90/47/92 
f 63/55/65 95/52/97 93/50/95 
f 97/56/99 98/57/100 95/52/97 
f 97/56/99 99/58/101 98/57/100 
f 100/59/102 99/58/101 97/56/99 
f 40/60/41 100/59/102 41/61/42 
f 97/56/99 101/62/103 100/59/102 
f 102/63/104 82/65/84 74/64/76 
f 76/66/78 44/68/45 84/67/86 
f 91/49/93 90/47/92 93/50/95 
f 94/51/96 93/50/95 95/52/97 
f 96/53/98 95/52/97 98/57/100 
f 90/47/92 102/63/104 74/64/76 
f 90/47/92 74/64/76 61/54/63 
f 93/50/95 61/54/63 63/55/65 
f 95/52/97 63/55/65 84/67/86 
f 95/52/97 84/67/86 97/56/99 
f 102/63/104 103/70/105 104/69/106 
f 84/67/86 101/62/103 97/56/99 
f 90/47/92 103/70/105 102/63/104 
f 102/63/104 104/69/106 82/65/84 
f 47/71/48 44/68/45 82/65/84 
f 91/49/93 49/73/50 48/72/49 
f 50/74/51 94/51/96 51/75/52 
f 51/75/52 96/53/98 52/76/53 
f 53/77/54 104/69/106 54/78/55 
f 49/73/50 91/49/93 50/74/51 
f 52/76/53 98/57/100 40/60/41 
f 82/65/84 53/77/54 47/71/48 
f 101/62/103 55/80/56 41/79/42 
f 92/48/94 48/72/49 56/81/57 
f 103/70/105 92/48/94 105/82/107 
f 105/82/107 56/81/57 58/83/59 
f 59/84/60 106/85/108 58/83/59 
f 106/85/108 59/84/60 54/78/55 
f 90/47/109 92/48/94 103/70/105 
f 105/82/107 106/85/108 103/70/105 
f 99/58/101 40/60/41 98/57/100 
f 48/72/49 92/48/94 91/49/93 
f 100/59/102 40/60/41 99/58/101 
f 100/59/102 101/62/103 41/79/42 
f 44/68/45 76/66/78 82/65/84 
f 55/80/56 84/67/86 44/68/45 
f 51/75/52 94/51/96 96/53/98 
f 54/78/55 104/69/106 103/70/105 
f 50/74/51 91/49/93 94/51/96 
f 52/76/53 96/53/98 98/57/100 
f 84/67/86 55/80/56 101/62/103 
f 82/65/84 104/69/106 53/77/54 
f 105/82/107 58/83/59 106/85/108 
f 56/81/57 105/82/107 92/48/94 
f 54/78/55 103/70/105 106/85/108 
# 206 faces

